<svg width="543" height="290" viewBox="0 0 543 290" fill="none" xmlns="http://www.w3.org/2000/svg">
<path d="M110.037 99.968L113.143 85.2931L111.559 84.9578L111.2 86.6532L111.005 86.612C110.762 85.9796 110.393 84.5658 108.309 84.1246C105.613 83.5539 103.298 85.2998 102.586 88.6628C101.868 92.0536 103.277 94.5878 105.945 95.1526C108.002 95.588 108.967 94.4566 109.452 93.9494L109.591 93.9788L108.397 99.6208L110.037 99.968ZM110.401 90.2882C109.89 92.7062 108.453 94.1444 106.479 93.7266C104.423 93.2913 103.749 91.2612 104.231 88.9821C104.708 86.7309 106.107 85.1976 108.191 85.6388C110.193 86.0624 110.907 87.898 110.401 90.2882ZM123.199 89.919C123.005 88.2955 122.066 87.0368 119.954 86.5897C117.703 86.1132 115.765 87.0386 115.382 88.8452C115.07 90.3182 115.737 91.4902 117.599 92.3636L119.29 93.157C120.314 93.6351 120.712 94.2567 120.556 94.9932C120.362 95.9104 119.231 96.4549 117.702 96.1313C116.361 95.8474 115.642 95.0928 115.593 93.8845L113.954 93.9441C113.953 95.8385 115.242 97.1206 117.424 97.5824C119.904 98.1075 121.88 97.11 122.269 95.2687C122.584 93.7818 121.852 92.6467 120.046 91.7781L118.544 91.0537C117.346 90.4733 116.866 89.9288 117.04 89.1089C117.234 88.1918 118.348 87.7306 119.654 88.0072C121.085 88.3102 121.508 89.2273 121.637 90.0241L123.199 89.919Z" fill="black"/>
<path d="M364.922 265.626C366.816 265.812 367.905 264.891 368.314 264.218L368.399 264.226L368.255 265.696L369.923 265.859L370.624 258.706C370.961 255.257 368.371 254.603 366.985 254.468C365.345 254.307 363.424 254.69 362.382 256.586L363.91 257.306C364.355 256.551 365.307 255.788 366.898 255.943C368.432 256.094 369.108 256.981 368.972 258.373L368.966 258.43C368.888 259.236 368.074 259.085 366.07 259.145C364.03 259.209 361.788 259.439 361.545 261.927C361.337 264.048 362.858 265.424 364.922 265.626ZM365.323 264.153C363.994 264.023 363.091 263.335 363.204 262.176C363.329 260.903 364.527 260.621 365.844 260.579C366.559 260.563 368.473 260.551 368.789 260.239L368.64 261.766C368.507 263.123 367.302 264.347 365.323 264.153ZM372.968 266.158L374.636 266.321L375.309 259.451C375.453 257.98 376.717 257.02 378.301 257.175C378.746 257.218 379.197 257.348 379.307 257.387L379.473 255.691C379.284 255.658 378.847 255.601 378.6 255.577C377.299 255.449 376.096 256.074 375.595 257.109L375.482 257.098L375.643 255.458L374.031 255.301L372.968 266.158ZM380.373 266.883L382.042 267.047L382.715 260.176C382.859 258.706 384.123 257.745 385.706 257.9C386.152 257.944 386.603 258.074 386.713 258.113L386.879 256.417C386.69 256.384 386.253 256.327 386.006 256.302C384.705 256.175 383.502 256.799 383.001 257.835L382.888 257.824L383.049 256.184L381.437 256.026L380.373 266.883ZM390.949 268.176C392.844 268.362 393.933 267.441 394.342 266.767L394.426 266.775L394.282 268.246L395.951 268.409L396.651 261.256C396.989 257.806 394.398 257.153 393.013 257.017C391.373 256.857 389.452 257.239 388.41 259.135L389.938 259.856C390.383 259.1 391.335 258.337 392.926 258.493C394.459 258.643 395.136 259.53 395 260.923L394.994 260.979C394.915 261.785 394.102 261.634 392.098 261.695C390.058 261.759 387.816 261.989 387.572 264.477C387.365 266.598 388.885 267.974 390.949 268.176ZM391.351 266.703C390.022 266.572 389.119 265.884 389.232 264.725C389.357 263.453 390.555 263.171 391.872 263.128C392.587 263.113 394.501 263.1 394.817 262.789L394.667 264.316C394.534 265.673 393.33 266.896 391.351 266.703ZM399.285 272.818C400.79 272.965 401.936 272.271 402.721 270.671L408.559 258.712L406.739 258.505L402.894 266.863L402.781 266.852L400.631 257.906L398.822 257.729L401.768 269.036L401.374 269.854C400.621 271.421 399.842 271.502 398.657 271.072L398.088 272.501C398.25 272.602 398.719 272.762 399.285 272.818ZM416.61 263.382L410.277 262.762L410.124 264.317L416.458 264.937L416.61 263.382ZM424.759 260.27L422.328 260.032L422.436 258.929C422.541 257.855 423.049 257.333 424.152 257.442C424.632 257.489 424.904 257.629 425.068 257.703L425.69 256.308C425.447 256.17 424.954 255.95 424.134 255.87C422.579 255.718 420.989 256.504 420.807 258.37L420.66 259.868L418.907 259.697L418.768 261.11L420.521 261.282L419.596 270.725L421.264 270.889L422.189 261.445L424.621 261.684L424.759 260.27ZM429.12 257.043L427.452 256.88L426.034 271.356L427.702 271.519L429.12 257.043ZM433.927 272.386C435.822 272.572 436.911 271.651 437.319 270.977L437.404 270.986L437.26 272.456L438.928 272.619L439.629 265.466C439.967 262.017 437.376 261.363 435.991 261.227C434.351 261.067 432.43 261.449 431.388 263.346L432.915 264.066C433.361 263.31 434.313 262.547 435.903 262.703C437.437 262.853 438.114 263.74 437.978 265.133L437.972 265.189C437.893 265.995 437.08 265.844 435.076 265.905C433.036 265.969 430.794 266.199 430.55 268.687C430.343 270.808 431.863 272.184 433.927 272.386ZM434.329 270.913C433 270.782 432.097 270.095 432.21 268.935C432.335 267.663 433.533 267.381 434.85 267.338C435.565 267.323 437.479 267.311 437.795 266.999L437.645 268.526C437.512 269.883 436.308 271.107 434.329 270.913ZM447.758 262.523L445.44 262.296L445.695 259.695L444.027 259.531L443.772 262.132L442.132 261.972L441.993 263.385L443.633 263.546L442.969 270.332C442.783 272.226 444.221 273.28 445.635 273.419C446.257 273.48 446.664 273.406 446.898 273.343L446.706 271.811C446.562 271.826 446.33 271.86 445.962 271.824C445.227 271.752 444.543 271.456 444.681 270.043L445.301 263.709L447.62 263.937L447.758 262.523ZM454.989 263.231L452.671 263.004L452.926 260.403L451.258 260.24L451.003 262.841L449.363 262.68L449.224 264.094L450.864 264.254L450.2 271.04C450.014 272.934 451.452 273.989 452.866 274.127C453.488 274.188 453.895 274.114 454.129 274.051L453.937 272.519C453.793 272.534 453.561 272.568 453.193 272.532C452.458 272.46 451.774 272.165 451.912 270.751L452.533 264.418L454.851 264.645L454.989 263.231ZM460.848 274.995C463.054 275.211 464.773 274.266 465.443 272.676L463.876 272.066C463.341 273.155 462.303 273.624 460.995 273.496C459.037 273.305 457.811 271.907 457.961 269.574L465.843 270.346L465.912 269.639C466.308 265.596 464.04 263.975 461.778 263.754C458.838 263.465 456.66 265.593 456.333 268.929C456.006 272.265 457.71 274.687 460.848 274.995ZM458.102 268.132C458.381 266.454 459.723 265.065 461.632 265.252C463.441 265.429 464.467 266.9 464.287 268.738L458.102 268.132ZM470.212 269.09C470.397 267.195 471.676 266.236 473.273 266.392C474.821 266.544 475.662 267.647 475.496 269.35L474.831 276.136L476.499 276.3L477.175 269.401C477.446 266.63 476.099 265.156 473.901 264.941C472.261 264.78 471.171 265.416 470.554 266.469L470.413 266.455L470.579 264.758L468.967 264.6L467.904 275.458L469.572 275.621L470.212 269.09Z" fill="black"/>
<path d="M366.96 80.9298C369.153 80.6158 370.599 79.2895 370.872 77.586L369.205 77.3655C368.944 78.5508 368.047 79.2531 366.746 79.4393C364.799 79.7181 363.276 78.6518 362.867 76.3498L370.707 75.2277L370.606 74.5246C370.03 70.5031 367.443 69.4673 365.193 69.7894C362.268 70.208 360.658 72.7918 361.133 76.1103C361.608 79.4287 363.838 81.3767 366.96 80.9298ZM362.662 74.9156C362.534 73.2192 363.508 71.5516 365.406 71.2798C367.206 71.0222 368.552 72.207 368.814 74.035L362.662 74.9156ZM374.652 72.9696C374.383 71.0854 375.397 69.8497 376.986 69.6222C378.525 69.4018 379.604 70.2733 379.847 71.9677L380.813 78.7171L382.472 78.4796L381.49 71.6177C381.095 68.8617 379.437 67.7503 377.25 68.0633C375.619 68.2968 374.711 69.1729 374.362 70.3421L374.222 70.3623L373.98 68.6749L372.377 68.9044L373.923 79.7034L375.582 79.4659L374.652 72.9696ZM389.923 77.6425C392.314 77.3003 393.679 75.6125 393.687 73.6599L392.028 73.8975C391.887 75.1229 391.004 75.9668 389.71 76.152C387.742 76.4338 386.243 74.9839 385.884 72.481C385.534 70.0343 386.598 68.2462 388.539 67.9684C390.001 67.7591 391.002 68.5342 391.396 69.4822L393.055 69.2447C392.484 67.2602 390.575 66.1559 388.297 66.4819C385.372 66.9006 383.762 69.4844 384.233 72.7748C384.696 76.0088 386.886 78.0773 389.923 77.6425ZM400.983 76.0594C403.907 75.6407 405.558 73.1372 405.079 69.7907C404.596 66.416 402.309 64.4761 399.384 64.8948C396.46 65.3135 394.809 67.8169 395.292 71.1916C395.771 74.5382 398.058 76.4781 400.983 76.0594ZM400.769 74.5689C398.548 74.8869 397.261 73.1195 396.951 70.9541C396.641 68.7887 397.376 66.7033 399.598 66.3853C401.819 66.0672 403.11 67.8628 403.42 70.0282C403.73 72.1936 402.991 74.2509 400.769 74.5689ZM412.486 74.4126C414.568 74.1147 415.085 72.7204 415.366 72.0775L415.563 72.0493L415.801 73.7086L417.404 73.4791L415.343 59.0804L413.683 59.3179L414.444 64.6331L414.304 64.6532C413.858 64.1431 413.026 62.942 410.916 63.244C408.188 63.6345 406.614 66.0696 407.101 69.4724C407.593 72.9034 409.787 74.7991 412.486 74.4126ZM412.498 72.8899C410.417 73.1878 409.087 71.5128 408.757 69.2068C408.43 66.9289 409.217 65.0082 411.327 64.7063C413.351 64.4164 414.654 65.8945 415 68.3131C415.35 70.7597 414.495 72.6041 412.498 72.8899ZM425.233 72.5879C427.426 72.2739 428.872 70.9477 429.145 69.2441L427.478 69.0236C427.217 70.2089 426.32 70.9112 425.02 71.0974C423.072 71.3762 421.549 70.31 421.141 68.008L428.98 66.8858L428.879 66.1827C428.303 62.1612 425.716 61.1254 423.466 61.4475C420.541 61.8662 418.931 64.45 419.406 67.7684C419.881 71.0869 422.111 73.0348 425.233 72.5879ZM420.935 66.5737C420.807 64.8773 421.781 63.2097 423.679 62.938C425.479 62.6803 426.825 63.8651 427.087 65.6931L420.935 66.5737ZM437.389 63.5296L431.089 64.4314L431.311 65.9781L437.61 65.0764L437.389 63.5296ZM447.476 64.6685C447.766 66.6933 446.352 67.8428 445.115 68.0199C443.737 68.2172 442.608 67.3457 442.382 65.7708L441.416 59.0214L439.757 59.2589L440.739 66.1208C441.133 68.8768 442.785 69.9892 444.81 69.6994C446.441 69.4659 447.385 68.4411 447.734 67.2719L447.847 67.2558L448.108 69.0837L449.767 68.8462L448.222 58.0472L446.562 58.2847L447.476 64.6685ZM452.806 68.4112L454.466 68.1736L453.487 61.3399C453.278 59.8775 454.278 58.6438 455.853 58.4184C456.296 58.355 456.765 58.3739 456.881 58.3859L456.64 56.6986C456.448 56.7117 456.01 56.7601 455.764 56.7953C454.47 56.9805 453.45 57.8727 453.209 58.9977L453.097 59.0138L452.863 57.3827L451.26 57.6122L452.806 68.4112ZM459.771 52.7205L458.112 52.958L460.173 67.3567L461.832 67.1191L459.771 52.7205Z" fill="black"/>
<path d="M48.245 265.188C47.268 263.877 45.827 263.254 43.7729 263.919C41.5837 264.628 40.3646 266.396 40.9335 268.153C41.3974 269.586 42.5594 270.269 44.6093 270.098L46.4703 269.944C47.5964 269.848 48.2516 270.188 48.4835 270.904C48.7723 271.796 48.0627 272.832 46.5762 273.313C45.2721 273.736 44.2729 273.44 43.6281 272.417L42.2371 273.285C43.1798 274.928 44.9367 275.397 47.0583 274.71C49.4705 273.929 50.6857 272.08 50.1059 270.289C49.6377 268.843 48.4369 268.224 46.4389 268.371L44.7758 268.492C43.4476 268.586 42.7601 268.353 42.5019 267.556C42.2131 266.664 42.949 265.709 44.2192 265.297C45.6112 264.847 46.4349 265.431 46.9439 266.057L48.245 265.188ZM56.5756 271.658C58.3864 271.072 59.0173 269.792 59.1228 269.012L59.2039 268.985L59.659 270.391L61.2536 269.874L59.0393 263.036C57.9716 259.739 55.3355 260.175 54.0112 260.604C52.4436 261.111 50.8348 262.229 50.6367 264.384L52.3252 264.434C52.4315 263.564 53.0001 262.484 54.5203 261.991C55.9866 261.517 56.9612 262.06 57.3922 263.391L57.4097 263.445C57.6592 264.215 56.8535 264.401 55.0403 265.257C53.1956 266.131 51.2321 267.237 52.0023 269.615C52.6587 271.642 54.6026 272.297 56.5756 271.658ZM56.355 270.147C55.0847 270.558 53.982 270.288 53.6231 269.18C53.2293 267.964 54.2149 267.227 55.4056 266.662C56.055 266.362 57.8046 265.586 57.9699 265.174L58.4425 266.634C58.8626 267.931 58.2469 269.534 56.355 270.147ZM65.425 257.057L63.1006 257.809L62.7593 256.755C62.4267 255.728 62.6841 255.048 63.7382 254.706C64.1977 254.558 64.5029 254.578 64.6826 254.58L64.6957 253.053C64.4175 253.023 63.8784 253.019 63.0947 253.272C61.6082 253.754 60.4645 255.11 61.0422 256.893L61.506 258.326L59.8303 258.868L60.2679 260.22L61.9436 259.677L64.8669 268.704L66.4615 268.188L63.5383 259.161L65.8626 258.408L65.425 257.057ZM75.0147 265.657C77.1228 264.974 78.322 263.421 78.3009 261.696L76.6203 261.763C76.565 262.975 75.8008 263.82 74.5508 264.225C72.6792 264.831 70.997 264.039 70.2028 261.84L77.7366 259.401L77.5178 258.725C76.2663 254.86 73.5401 254.28 71.3779 254.98C68.5671 255.89 67.4199 258.71 68.4526 261.899C69.4854 265.089 72.0147 266.629 75.0147 265.657ZM69.7564 260.462C69.3416 258.812 70.0174 257.003 71.8418 256.412C73.5715 255.852 75.0998 256.791 75.6686 258.547L69.7564 260.462ZM85.4519 254.663L79.3978 256.623L79.8792 258.11L85.9333 256.149L85.4519 254.663ZM90.6357 260.36L92.1763 259.861L91.6599 258.266L91.8491 258.205C92.3842 258.659 93.4625 259.683 95.4625 259.036C98.0572 258.195 99.1941 255.528 98.1263 252.231C97.0673 248.96 94.5826 247.466 91.9609 248.314C89.9339 248.971 89.7148 250.415 89.5385 251.07L89.4034 251.114L87.7492 246.005L86.1546 246.522L90.6357 260.36ZM90.5229 254.663C89.7702 252.338 90.2896 250.438 92.2356 249.808C94.2626 249.152 95.814 250.531 96.523 252.72C97.2406 254.936 96.7825 257.025 94.7825 257.673C92.8635 258.295 91.2843 257.014 90.5229 254.663ZM107.404 250.242C108.034 252.188 106.836 253.561 105.647 253.946C104.323 254.375 103.062 253.708 102.572 252.195L100.471 245.708L98.8764 246.224L101.012 252.819C101.87 255.468 103.686 256.283 105.632 255.653C107.2 255.145 107.956 253.975 108.101 252.763L108.209 252.728L108.778 254.485L110.372 253.968L107.012 243.59L105.417 244.106L107.404 250.242ZM114.554 241.148L112.23 241.9L111.888 240.846C111.556 239.819 111.813 239.139 112.867 238.797C113.327 238.648 113.632 238.669 113.812 238.671L113.825 237.143C113.546 237.114 113.007 237.109 112.224 237.363C110.737 237.845 109.593 239.2 110.171 240.984L110.635 242.417L108.959 242.959L109.397 244.311L111.073 243.768L113.996 252.795L115.59 252.279L112.667 243.252L114.992 242.499L114.554 241.148ZM121.41 238.927L119.086 239.68L118.745 238.626C118.412 237.599 118.67 236.918 119.724 236.577C120.183 236.428 120.488 236.449 120.668 236.45L120.681 234.923C120.403 234.894 119.864 234.889 119.08 235.143C117.594 235.624 116.45 236.98 117.028 238.764L117.491 240.196L115.816 240.739L116.253 242.09L117.929 241.548L120.852 250.575L122.447 250.058L119.524 241.031L121.848 240.279L121.41 238.927ZM131 247.528C133.108 246.845 134.307 245.292 134.286 243.567L132.606 243.633C132.55 244.846 131.786 245.69 130.536 246.095C128.665 246.701 126.982 245.91 126.188 243.711L133.722 241.271L133.503 240.595C132.252 236.73 129.526 236.15 127.363 236.85C124.552 237.76 123.405 240.581 124.438 243.77C125.471 246.959 128 248.499 131 247.528ZM125.742 242.332C125.327 240.682 126.003 238.873 127.827 238.283C129.557 237.723 131.085 238.661 131.654 240.418L125.742 242.332ZM137.653 245.134L139.248 244.618L137.121 238.05C136.666 236.645 137.441 235.259 138.955 234.769C139.381 234.631 139.846 234.57 139.963 234.562L139.438 232.94C139.251 232.986 138.828 233.108 138.591 233.185C137.348 233.587 136.494 234.64 136.449 235.789L136.34 235.824L135.833 234.257L134.292 234.756L137.653 245.134Z" fill="black"/>
<path d="M27.8551 275.964L169.435 227.289" stroke="#C93939" stroke-width="1.32292"/>
<path d="M351.834 260.243L501.075 272.14" stroke="#C93939" stroke-width="1.32292"/>
<path d="M83.3519 87.62L143.223 99.7754" stroke="#C93939" stroke-width="0.846965"/>
<path d="M346.593 80.1943L494.34 56.0057" stroke="#C93939" stroke-width="1.32292"/>
<path d="M365.464 234.459L367.217 230.454L373.083 230.873L374.248 235.087L376.09 235.218L371.8 220.329L369.987 220.199L363.622 234.327L365.464 234.459ZM367.881 228.935L370.673 222.555L370.786 222.564L372.642 229.275L367.881 228.935ZM378.123 235.364L379.795 235.483L380.288 228.597C380.393 227.124 381.632 226.13 383.219 226.244C383.665 226.275 384.119 226.393 384.231 226.43L384.352 224.73C384.162 224.702 383.724 224.656 383.476 224.638C382.172 224.545 380.986 225.201 380.512 226.249L380.399 226.241L380.517 224.598L378.901 224.482L378.123 235.364ZM385.546 235.894L387.218 236.014L387.71 229.128C387.815 227.654 389.054 226.661 390.641 226.774C391.087 226.806 391.542 226.924 391.653 226.96L391.775 225.26C391.584 225.232 391.146 225.187 390.898 225.169C389.595 225.076 388.409 225.732 387.935 226.78L387.821 226.772L387.939 225.128L386.324 225.013L385.546 235.894ZM396.152 236.909C398.051 237.045 399.115 236.095 399.506 235.411L399.591 235.417L399.486 236.891L401.158 237.01L401.67 229.841C401.917 226.384 399.31 225.799 397.922 225.7C396.278 225.582 394.368 226.015 393.376 227.938L394.922 228.618C395.347 227.851 396.279 227.063 397.873 227.177C399.41 227.287 400.11 228.156 400.01 229.552L400.006 229.608C399.949 230.416 399.132 230.286 397.13 230.399C395.092 230.517 392.857 230.806 392.679 233.3C392.527 235.425 394.084 236.761 396.152 236.909ZM396.515 235.425C395.183 235.33 394.262 234.666 394.345 233.504C394.436 232.229 395.626 231.915 396.942 231.839C397.656 231.804 399.569 231.742 399.877 231.422L399.767 232.952C399.67 234.312 398.498 235.567 396.515 235.425ZM404.607 241.33C406.116 241.438 407.243 240.714 407.985 239.093L413.507 226.985L411.682 226.826L408.058 235.282L407.945 235.274L405.561 226.388L403.747 226.258L406.989 237.484L406.617 238.312C405.905 239.899 405.129 240 403.933 239.601L403.402 241.044C403.566 241.141 404.04 241.289 404.607 241.33ZM420.356 238.383L421.773 238.484L422.719 234.507L424.866 234.661L425.194 233.26L423.054 233.107L423.909 229.523L426.076 229.678L426.404 228.277L424.244 228.122L425.19 224.146L423.773 224.044L422.827 228.021L419.143 227.758L420.09 223.781L418.673 223.68L417.726 227.657L415.58 227.503L415.252 228.904L417.391 229.057L416.537 232.641L414.369 232.486L414.041 233.887L416.202 234.041L415.255 238.018L416.672 238.119L417.619 234.143L421.302 234.406L420.356 238.383ZM417.954 232.743L418.808 229.158L422.492 229.421L421.637 233.006L417.954 232.743ZM433.152 228.361L430.715 228.186L430.794 227.081C430.871 226.004 431.365 225.47 432.47 225.549C432.952 225.584 433.227 225.717 433.393 225.786L433.978 224.375C433.731 224.244 433.233 224.037 432.412 223.978C430.853 223.867 429.284 224.695 429.151 226.565L429.043 228.067L427.286 227.941L427.185 229.358L428.942 229.484L428.265 238.948L429.937 239.068L430.614 229.603L433.051 229.777L433.152 228.361ZM437.426 225.02L435.754 224.901L434.717 239.409L436.389 239.529L437.426 225.02ZM442.635 240.232C444.534 240.367 445.598 239.418 445.989 238.734L446.074 238.74L445.969 240.214L447.641 240.333L448.153 233.164C448.4 229.707 445.793 229.122 444.405 229.023C442.761 228.905 440.851 229.338 439.859 231.261L441.405 231.941C441.83 231.174 442.762 230.386 444.356 230.5C445.893 230.61 446.593 231.479 446.493 232.874L446.489 232.931C446.432 233.739 445.615 233.609 443.613 233.722C441.575 233.84 439.34 234.129 439.162 236.623C439.01 238.748 440.567 240.084 442.635 240.232ZM442.998 238.748C441.666 238.653 440.745 237.989 440.828 236.827C440.919 235.552 442.109 235.238 443.425 235.161C444.139 235.127 446.052 235.064 446.36 234.745L446.25 236.275C446.153 237.635 444.981 238.89 442.998 238.748ZM456.202 230.008L453.879 229.842L454.065 227.235L452.393 227.116L452.207 229.723L450.563 229.605L450.462 231.022L452.106 231.14L451.619 237.94C451.484 239.839 452.949 240.855 454.366 240.956C454.989 241.001 455.394 240.916 455.627 240.847L455.394 239.321C455.25 239.339 455.02 239.38 454.651 239.353C453.915 239.301 453.222 239.023 453.324 237.606L453.777 231.259L456.101 231.425L456.202 230.008Z" fill="black"/>
<path d="M63.8025 62.1125L66.7425 47.4034L65.1546 47.086L64.8149 48.7853L64.6199 48.7464C64.3691 48.1168 63.9845 46.7073 61.8952 46.2897C59.1929 45.7496 56.8977 47.5216 56.2239 50.8924C55.5446 54.2911 56.9824 56.8092 59.6567 57.3438C61.7182 57.7558 62.6708 56.6135 63.1499 56.1009L63.2892 56.1287L62.1589 61.7839L63.8025 62.1125ZM64.0576 52.4292C63.5732 54.8528 62.1526 56.3072 60.1747 55.9118C58.1132 55.4998 57.4165 53.4774 57.8731 51.1931C58.3242 48.9365 59.7057 47.3875 61.7951 47.8051C63.8008 48.206 64.5365 50.0334 64.0576 52.4292ZM75.2288 55.676C74.8279 57.6818 73.112 58.2949 71.8862 58.0499C70.5212 57.777 69.7466 56.5793 70.0584 55.0192L71.3948 48.3333L69.7512 48.0048L68.3925 54.8021C67.8468 57.5322 69.0338 59.1311 71.0395 59.532C72.6553 59.855 73.8865 59.2029 74.6051 58.2167L74.7166 58.239L74.3546 60.0498L75.9983 60.3783L78.1364 49.6808L76.4928 49.3523L75.2288 55.676ZM83.4493 62.0993C85.6222 62.5336 87.4273 61.7646 88.2517 60.249L86.7529 59.4859C86.1123 60.5167 85.0328 60.8804 83.7444 60.6229C81.8152 60.2373 80.7342 58.7247 81.1155 56.4181L88.881 57.9702L89.0202 57.2738C89.8164 53.2901 87.7213 51.4517 85.4927 51.0063C82.5955 50.4272 80.2167 52.3273 79.5596 55.6146C78.9026 58.9018 80.357 61.4813 83.4493 62.0993ZM81.3995 54.9973C81.8436 53.3551 83.3172 52.1069 85.1976 52.4827C86.9805 52.8391 87.8554 54.4046 87.4935 56.2154L81.3995 54.9973ZM90.4235 63.2615L92.0671 63.5901L93.4202 56.8206C93.7098 55.3719 95.0635 54.5416 96.6236 54.8534C97.0623 54.9411 97.4983 55.1152 97.6042 55.1653L97.9383 53.4939C97.753 53.4423 97.324 53.3421 97.0803 53.2934C95.7988 53.0372 94.5397 53.5388 93.9381 54.5195L93.8266 54.4972L94.1496 52.8814L92.5617 52.5641L90.4235 63.2615ZM98.3085 68.9804C99.792 69.2769 101.001 68.7001 101.941 67.186L108.94 55.8667L107.149 55.4797L102.492 63.414L102.381 63.3918L101.132 54.277L99.3486 53.9206L101.155 65.4645L100.682 66.239C99.7765 67.7239 98.9937 67.7268 97.857 67.1809L97.1496 68.546C97.3001 68.663 97.7514 68.8691 98.3085 68.9804ZM118.219 60.1838C118.007 58.5626 117.054 57.3147 114.937 56.8915C112.68 56.4405 110.753 57.3878 110.391 59.1986C110.096 60.6751 110.776 61.8395 112.648 62.6917L114.347 63.4659C115.377 63.9324 115.782 64.5494 115.634 65.2876C115.451 66.2069 114.325 66.7642 112.793 66.458C111.449 66.1893 110.722 65.4428 110.659 64.2352L109.021 64.3134C109.041 66.2077 110.344 67.4751 112.531 67.9122C115.018 68.4091 116.982 67.3893 117.35 65.5437C117.648 64.0533 116.903 62.9266 115.088 62.0785L113.578 61.3711C112.373 60.8044 111.887 60.2654 112.051 59.4436C112.235 58.5242 113.344 58.0505 114.653 58.3122C116.088 58.599 116.521 59.5113 116.659 60.3066L118.219 60.1838ZM126.019 59.2514L123.735 58.7948L124.247 56.2319L122.604 55.9034L122.091 58.4663L120.475 58.1434L120.197 59.5363L121.813 59.8592L120.476 66.5452C120.103 68.4117 121.43 69.6038 122.822 69.8822C123.435 70.0047 123.848 69.9712 124.087 69.9322L124.048 68.3889C123.903 68.3889 123.669 68.4001 123.307 68.3277C122.583 68.1829 121.931 67.8209 122.209 66.428L123.456 60.1877L125.741 60.6443L126.019 59.2514ZM126.353 70.4431L127.997 70.7716L129.35 64.0021C129.64 62.5535 130.993 61.7232 132.554 62.035C132.992 62.1227 133.428 62.2968 133.534 62.3469L133.868 60.6754C133.683 60.6239 133.254 60.5237 133.01 60.4749C131.729 60.2188 130.47 60.7204 129.868 61.701L129.757 61.6788L130.08 60.063L128.492 59.7456L126.353 70.4431ZM133.651 71.9016L135.294 72.2301L137.432 61.5326L135.789 61.2041L133.651 71.9016ZM136.981 59.5883C137.622 59.7163 138.251 59.3207 138.374 58.7078C138.496 58.0949 138.067 57.4877 137.426 57.3596C136.786 57.2315 136.156 57.6272 136.033 58.2401C135.911 58.8529 136.34 59.4602 136.981 59.5883ZM141.234 66.7252C141.608 64.8587 142.975 64.0311 144.549 64.3458C146.074 64.6506 146.802 65.8317 146.466 67.5101L145.13 74.1961L146.773 74.5246L148.132 67.7272C148.678 64.9971 147.484 63.3969 145.318 62.9639C143.702 62.641 142.554 63.1648 141.836 64.1511L141.697 64.1232L142.031 62.4517L140.443 62.1344L138.305 72.8319L139.948 73.1604L141.234 66.7252ZM153.248 80.2224C155.811 80.7347 158.107 79.9767 158.658 77.2187L160.857 66.2148L159.27 65.8974L158.93 67.5967L158.763 67.5633C158.512 66.9338 158.1 65.5187 156.01 65.1011C153.308 64.561 151.013 66.333 150.356 69.6202C149.687 72.9632 151.259 75.2473 153.85 75.7651C155.939 76.1828 156.853 75.0906 157.332 74.578L157.471 74.6058L157.037 76.7788C156.68 78.5617 155.265 79.119 153.538 78.7738C151.595 78.3854 151.117 77.2252 150.797 76.5455L149.304 77.2031C149.748 78.458 150.86 79.7449 153.248 80.2224ZM154.368 74.3332C152.306 73.9212 151.559 72.1495 152.005 69.9209C152.439 67.7479 153.821 66.1989 155.91 66.6165C157.916 67.0174 158.651 68.8448 158.189 71.157C157.716 73.5249 156.346 74.7285 154.368 74.3332Z" fill="black"/>
<path d="M15.1472 249.151C15.3752 249.869 15.4229 250.515 15.2902 251.089C15.162 251.654 14.905 252.156 14.5192 252.593C14.1398 253.028 13.678 253.402 13.1337 253.715C12.5938 254.019 12.0221 254.267 11.4184 254.459L7.89193 255.578L3.72484 242.454L6.95588 241.428C7.52775 241.247 8.10723 241.122 8.69433 241.054C9.27942 240.981 9.8347 241 10.3602 241.113C10.8837 241.22 11.3432 241.445 11.7389 241.788C12.141 242.128 12.4439 242.62 12.6476 243.262C12.8272 243.827 12.862 244.344 12.7519 244.813C12.6463 245.273 12.4433 245.68 12.143 246.034C11.8492 246.386 11.5077 246.677 11.1186 246.905C11.6277 246.834 12.1463 246.838 12.6744 246.915C13.2069 246.984 13.692 247.19 14.1299 247.533C14.5741 247.875 14.9132 248.414 15.1472 249.151ZM10.9783 243.886C10.7423 243.143 10.3429 242.689 9.7802 242.525C9.22184 242.352 8.54552 242.392 7.75126 242.644L5.79739 243.265L7.14708 247.516L9.26299 246.844C10.0382 246.598 10.5778 246.238 10.8819 245.763C11.1903 245.281 11.2224 244.655 10.9783 243.886ZM13.4212 249.762C13.2113 249.102 12.9197 248.635 12.5462 248.361C12.177 248.08 11.7574 247.937 11.2873 247.932C10.8172 247.928 10.328 248.006 9.81964 248.167L7.57983 248.879L9.10807 253.692L11.2716 253.005C11.7037 252.868 12.124 252.671 12.5324 252.416C12.9389 252.154 13.239 251.81 13.4327 251.385C13.6308 250.951 13.6269 250.41 13.4212 249.762ZM17.8127 241.38L20.0702 248.491C20.2801 249.151 20.568 249.585 20.934 249.79C21.3 249.996 21.7722 250.007 22.3504 249.823C22.9032 249.648 23.3748 249.326 23.7652 248.86C24.1599 248.385 24.4253 247.888 24.5614 247.369L22.2161 239.982L23.8173 239.474L27.0039 249.51L25.6409 249.943L25.0778 248.632C24.8452 249.265 24.48 249.811 23.9822 250.27C23.4887 250.721 22.9497 251.039 22.3651 251.224C21.393 251.533 20.5837 251.507 19.9374 251.145C19.2954 250.776 18.8261 250.124 18.5295 249.19L16.2115 241.889L17.8127 241.38ZM32.223 232.136C32.7631 231.965 33.2675 231.857 33.7362 231.813C34.2049 231.769 34.6635 231.77 35.1119 231.817L34.9755 233.172C34.607 233.135 34.2275 233.14 33.8367 233.187C33.4524 233.232 33.0695 233.315 32.6883 233.436C31.2841 233.882 30.7585 234.661 31.1115 235.773L31.7591 237.813L35.1617 236.732L35.3896 238.045L32.1586 239.071L34.6976 247.067L33.0964 247.576L30.5574 239.579L28.1651 240.339L27.7656 239.081L30.1579 238.321L29.5224 236.319C29.3247 235.697 29.3131 235.109 29.4875 234.557C29.6683 234.003 29.9968 233.518 30.473 233.101C30.9471 232.678 31.5304 232.356 32.223 232.136ZM43.6529 228.507C44.193 228.335 44.6974 228.228 45.1661 228.184C45.6348 228.14 46.0933 228.141 46.5418 228.188L46.4054 229.543C46.0369 229.506 45.6573 229.511 45.2666 229.558C44.8822 229.603 44.4994 229.686 44.1182 229.807C42.7139 230.253 42.1883 231.032 42.5414 232.144L43.189 234.183L46.5916 233.103L46.8195 234.416L43.5885 235.442L46.1275 243.438L44.5262 243.947L41.9872 235.95L39.5949 236.71L39.1955 235.451L41.5878 234.692L40.9523 232.69C40.7546 232.068 40.7429 231.48 40.9174 230.928C41.0982 230.374 41.4267 229.889 41.9028 229.472C42.377 229.048 42.9603 228.727 43.6529 228.507ZM53.5326 236.187C53.9463 237.336 54.5206 238.087 55.2556 238.442C55.9949 238.787 56.7521 238.837 57.5273 238.591C58.042 238.428 58.4817 238.204 58.8463 237.92C59.2108 237.637 59.5681 237.275 59.9181 236.835L61.007 237.654C60.6601 238.17 60.2182 238.629 59.6811 239.03C59.1441 239.431 58.561 239.732 57.9319 239.931C56.9534 240.242 56.0514 240.287 55.226 240.067C54.4069 239.844 53.6922 239.4 53.0819 238.733C52.4759 238.058 52.0084 237.203 51.6796 236.167C51.3568 235.15 51.2482 234.192 51.3539 233.291C51.4659 232.388 51.7775 231.607 52.2887 230.948C52.8063 230.287 53.5099 229.815 54.3995 229.533C55.6639 229.131 56.7976 229.254 57.8003 229.901C58.8095 230.546 59.5561 231.631 60.0403 233.156C60.0948 233.327 60.1399 233.491 60.1756 233.648C60.2177 233.802 60.2527 233.935 60.2806 234.045L53.5326 236.187ZM54.8362 230.842C54.0927 231.078 53.5538 231.54 53.2192 232.226C52.8847 232.913 52.8612 233.819 53.1487 234.945L58.3813 233.284C58.0213 232.216 57.5299 231.484 56.9073 231.087C56.2827 230.684 55.5923 230.602 54.8362 230.842ZM65.2129 237.378L64.8225 236.149L66.3856 235.653L63.9798 228.075L62.4167 228.572L62.0263 227.342L64.8094 226.458L65.8584 228.738C65.9837 227.789 66.2512 227.001 66.6607 226.374C67.0703 225.748 67.7294 225.29 68.638 225.002C68.9176 224.913 69.1725 224.856 69.4026 224.832C69.6371 224.8 69.8788 224.779 70.1277 224.77L70.9763 228.236L69.661 228.653L68.9832 226.518C68.9578 226.526 68.9292 226.535 68.8974 226.545C67.3597 227.034 66.6063 228.483 66.6372 230.893L67.9869 235.144L70.0265 234.497L70.4169 235.726L65.2129 237.378ZM78.1974 231.64C78.0501 231.176 78.0838 230.732 78.2987 230.307C78.5135 229.882 78.8592 229.594 79.3357 229.442C79.8186 229.289 80.2704 229.324 80.691 229.547C81.1179 229.768 81.405 230.111 81.5523 230.575C81.7016 231.045 81.6667 231.497 81.4475 231.93C81.2327 232.355 80.8838 232.644 80.4009 232.797C79.9244 232.949 79.4758 232.913 79.0552 232.69C78.6326 232.46 78.3466 232.11 78.1974 231.64ZM89.3724 213.991C89.9125 213.819 90.4169 213.711 90.8856 213.667C91.3543 213.624 91.8129 213.625 92.2613 213.671L92.1249 215.026C91.7565 214.989 91.3769 214.994 90.9861 215.041C90.6018 215.087 90.219 215.17 89.8377 215.291C88.4335 215.737 87.9079 216.515 88.2609 217.627L88.9085 219.667L92.3111 218.587L92.539 219.899L89.308 220.925L91.847 228.922L90.2458 229.43L87.7068 221.434L85.3145 222.193L84.915 220.935L87.3073 220.176L86.6718 218.174C86.4741 217.551 86.4625 216.964 86.6369 216.412C86.8178 215.858 87.1462 215.372 87.6224 214.955C88.0965 214.532 88.6799 214.21 89.3724 213.991ZM99.5026 226.491L99.1122 225.262L100.675 224.765L98.2694 217.188L96.7063 217.684L96.316 216.455L99.099 215.571L100.148 217.851C100.273 216.902 100.541 216.114 100.95 215.487C101.36 214.86 102.019 214.403 102.928 214.114C103.207 214.025 103.462 213.969 103.692 213.945C103.927 213.912 104.168 213.892 104.417 213.883L105.266 217.348L103.951 217.766L103.273 215.631C103.247 215.639 103.219 215.648 103.187 215.658C101.649 216.146 100.896 217.596 100.927 220.006L102.277 224.257L104.316 223.609L104.707 224.839L99.5026 226.491ZM111.406 211.433C112.823 210.983 114.044 211.116 115.069 211.833C116.094 212.55 116.858 213.703 117.363 215.291C117.688 216.314 117.81 217.272 117.73 218.165C117.649 219.058 117.36 219.831 116.862 220.486C116.361 221.135 115.644 221.607 114.71 221.904C113.293 222.354 112.068 222.218 111.034 221.497C110.001 220.776 109.234 219.628 108.734 218.052C108.407 217.023 108.284 216.061 108.364 215.169C108.442 214.269 108.732 213.499 109.235 212.857C109.742 212.206 110.466 211.731 111.406 211.433ZM111.821 212.739C110.956 213.013 110.404 213.542 110.163 214.325C109.928 215.106 110.024 216.166 110.449 217.507C110.871 218.835 111.4 219.751 112.036 220.256C112.676 220.752 113.428 220.863 114.292 220.589C115.156 220.314 115.702 219.788 115.931 219.009C116.165 218.228 116.071 217.17 115.647 215.836C115.224 214.501 114.695 213.585 114.061 213.087C113.425 212.582 112.678 212.466 111.821 212.739ZM125.628 206.917C125.946 206.816 126.276 206.788 126.62 206.833C126.963 206.878 127.293 207.071 127.611 207.41C127.928 207.75 128.209 208.304 128.453 209.073L130.826 216.546L129.339 217.018L127.048 209.803C126.849 209.174 126.666 208.731 126.501 208.476C126.336 208.221 126.073 208.15 125.71 208.265C125.412 208.36 125.143 208.55 124.905 208.836C124.665 209.115 124.476 209.511 124.338 210.023L126.813 217.82L125.317 218.295L123.026 211.08C122.826 210.451 122.644 210.008 122.479 209.753C122.314 209.498 122.05 209.428 121.688 209.543C121.377 209.641 121.105 209.833 120.874 210.116C120.64 210.393 120.454 210.788 120.316 211.3L122.791 219.097L121.314 219.566L118.127 209.53L119.385 209.13L119.85 210.263C120 209.788 120.202 209.367 120.456 209C120.715 208.624 121.095 208.357 121.597 208.197C121.978 208.076 122.366 208.054 122.762 208.132C123.155 208.203 123.514 208.473 123.838 208.944C123.986 208.463 124.193 208.048 124.46 207.697C124.724 207.341 125.114 207.08 125.628 206.917ZM133.714 208.284C134.135 209.612 134.649 210.712 135.254 211.583C135.864 212.446 136.596 213.178 137.452 213.781C138.308 214.383 139.317 214.941 140.48 215.453L139.92 216.596C138.624 216.084 137.468 215.504 136.45 214.854C135.439 214.203 134.564 213.397 133.825 212.435C133.092 211.472 132.496 210.266 132.036 208.817C131.576 207.368 131.367 206.039 131.41 204.83C131.459 203.618 131.709 202.454 132.159 201.339C132.616 200.222 133.225 199.081 133.988 197.915L135.106 198.526C134.449 199.629 133.944 200.671 133.59 201.651C133.237 202.63 133.063 203.647 133.069 204.701C133.075 205.756 133.29 206.95 133.714 208.284ZM148.479 203.596C148.056 202.262 147.542 201.162 146.939 200.298C146.336 199.433 145.607 198.703 144.753 198.106C143.899 197.51 142.886 196.951 141.713 196.428L142.273 195.285C143.569 195.797 144.722 196.378 145.733 197.029C146.751 197.678 147.626 198.485 148.358 199.448C149.097 200.41 149.697 201.615 150.157 203.064C150.617 204.512 150.822 205.842 150.773 207.054C150.731 208.264 150.481 209.427 150.024 210.544C149.574 211.66 148.967 212.8 148.204 213.966L147.087 213.355C147.742 212.266 148.245 211.228 148.596 210.242C148.948 209.257 149.12 208.236 149.114 207.182C149.113 206.12 148.901 204.924 148.479 203.596Z" fill="black"/>
<path d="M284.752 54.8112L285.603 59.3725L290.617 58.437L290.879 59.8428L285.866 60.7782L286.763 65.5853L292.916 64.4371L293.171 65.8035L285.307 67.2708L282.781 53.7344L290.469 52.3001L290.533 53.7327L284.752 54.8112ZM296.604 65.163L294.673 54.8116L296.079 54.5493L296.474 55.9607C296.795 55.3516 297.243 54.8475 297.82 54.4483C298.395 54.0425 298.984 53.7834 299.587 53.6709C300.603 53.4814 301.39 53.6125 301.949 54.0643C302.515 54.5149 302.887 55.2186 303.065 56.1754L304.469 63.6956L302.817 64.0038L301.641 57.7025C301.509 56.9947 301.364 56.4319 301.204 56.014C301.045 55.5962 300.818 55.3095 300.525 55.154C300.238 54.9973 299.836 54.9673 299.318 55.0639C298.912 55.1397 298.545 55.2997 298.217 55.5439C297.896 55.7869 297.62 56.069 297.389 56.3903C297.162 56.7038 296.982 57.012 296.849 57.3149L298.256 64.8548L296.604 65.163ZM312.849 60.891C313.366 60.7944 313.833 60.6226 314.248 60.3756C314.668 60.1209 315.043 59.8237 315.373 59.4841L316.381 60.415C316.001 60.886 315.514 61.2923 314.92 61.6337C314.326 61.9751 313.724 62.2027 313.114 62.3164C312.086 62.5084 311.166 62.4527 310.357 62.1493C309.553 61.8382 308.886 61.3183 308.357 60.5897C307.827 59.8546 307.46 58.9463 307.259 57.865C307.065 56.8295 307.082 55.8667 307.31 54.9766C307.537 54.0865 307.97 53.3376 308.61 52.73C309.248 52.1159 310.085 51.7122 311.12 51.519C312.437 51.2732 313.665 51.4578 314.804 52.0727L314.204 53.3241C313.191 52.8756 312.242 52.7339 311.357 52.8989C310.466 53.0652 309.795 53.5397 309.344 54.3223C308.892 55.0984 308.793 56.168 309.048 57.5311C309.306 58.9139 309.781 59.8628 310.474 60.3778C311.166 60.8863 311.957 61.0573 312.849 60.891ZM322.152 49.4607C323.613 49.188 324.809 49.4702 325.738 50.3073C326.667 51.1444 327.285 52.3821 327.591 54.0205C327.787 55.0756 327.791 56.0413 327.602 56.9175C327.413 57.7938 327.031 58.5263 326.456 59.1151C325.879 59.6973 325.11 60.0783 324.146 60.2581C322.685 60.5308 321.486 60.2459 320.548 59.4035C319.611 58.5611 318.991 57.3272 318.688 55.7019C318.49 54.6403 318.485 53.6713 318.675 52.7951C318.863 51.9123 319.245 51.1831 319.823 50.6074C320.406 50.0239 321.182 49.6417 322.152 49.4607ZM322.403 50.8074C321.512 50.9737 320.899 51.4306 320.563 52.1782C320.235 52.9244 320.199 53.989 320.457 55.3718C320.713 56.7415 321.125 57.7157 321.695 58.2945C322.269 58.8654 323.002 59.0678 323.893 58.9015C324.784 58.7352 325.391 58.2795 325.713 57.5345C326.042 56.7882 326.078 55.7269 325.821 54.3507C325.564 52.9744 325.152 52.0002 324.584 51.428C324.015 50.8492 323.288 50.6424 322.403 50.8074ZM335.416 42.6829L337.106 42.5811L339.815 57.1006L338.37 57.3702L337.958 56.0331C337.674 56.6558 337.303 57.142 336.847 57.4917C336.396 57.8402 335.886 58.0677 335.316 58.1741C334.418 58.3416 333.635 58.2537 332.967 57.9103C332.3 57.5669 331.75 57.0185 331.318 56.265C330.884 55.5049 330.568 54.5908 330.369 53.5225C330.175 52.4871 330.164 51.5331 330.333 50.6605C330.501 49.7814 330.844 49.0529 331.36 48.4751C331.881 47.8896 332.568 47.5173 333.42 47.3583C334.567 47.1443 335.566 47.3783 336.419 48.0601L335.416 42.6829ZM334.1 48.6047C333.235 48.7661 332.633 49.2277 332.293 49.9896C331.954 50.7514 331.912 51.8172 332.168 53.1869C332.671 55.887 333.752 57.0823 335.41 56.7729C335.994 56.6641 336.464 56.4067 336.823 56.0008C337.18 55.5883 337.456 55.1434 337.652 54.6661L336.687 49.4953C336.327 49.1284 335.926 48.8676 335.483 48.7128C335.039 48.5515 334.578 48.5155 334.1 48.6047ZM344.2 51.5318C344.47 52.7225 344.948 53.5387 345.634 53.9804C346.325 54.4143 347.07 54.5567 347.87 54.4075C348.401 54.3084 348.865 54.1405 349.261 53.9038C349.658 53.667 350.057 53.3518 350.458 52.9582L351.438 53.9045C351.031 54.3738 350.536 54.7747 349.954 55.1072C349.371 55.4396 348.756 55.6664 348.107 55.7874C347.098 55.9757 346.197 55.9098 345.405 55.5897C344.619 55.2683 343.965 54.7394 343.441 54.003C342.922 53.2589 342.563 52.3527 342.364 51.2844C342.168 50.2359 342.178 49.271 342.393 48.3899C342.615 47.5076 343.02 46.7708 343.609 46.1795C344.203 45.5871 344.959 45.2052 345.877 45.034C347.181 44.7907 348.291 45.0515 349.207 45.8165C350.129 46.5803 350.737 47.7486 351.031 49.3215C351.064 49.4984 351.088 49.6668 351.105 49.8265C351.127 49.985 351.146 50.1206 351.16 50.2332L344.2 51.5318ZM346.15 46.387C345.383 46.53 344.791 46.9218 344.375 47.5624C343.959 48.2029 343.824 49.0995 343.972 50.252L349.369 49.2451C349.142 48.1412 348.744 47.3541 348.175 46.8839C347.605 46.4071 346.93 46.2414 346.15 46.387ZM361.417 39.0623L363.125 48.2144C363.295 49.1253 363.261 49.9624 363.024 50.7255C362.787 51.4887 362.366 52.1266 361.764 52.6392C361.161 53.1518 360.404 53.4931 359.493 53.663C358.562 53.8367 357.727 53.7925 356.986 53.5306C356.251 53.2609 355.642 52.815 355.16 52.1929C354.676 51.5642 354.349 50.7944 354.179 49.8835L352.472 40.7314L354.163 40.4159L355.881 49.627C356.073 50.6559 356.456 51.3813 357.03 51.8032C357.61 52.2239 358.34 52.3523 359.218 52.1885C360.102 52.0234 360.736 51.6407 361.119 51.0402C361.509 50.4385 361.608 49.6233 361.416 48.5943L359.697 39.3833L361.417 39.0623ZM374.111 40.6206C374.3 41.6364 374.136 42.5182 373.618 43.2659C373.098 44.0071 372.394 44.5759 371.505 44.9724L376.636 50.2304L374.592 50.6119L369.811 45.4918L367.983 45.833L369.067 51.6427L367.356 51.9619L364.831 38.4255L368.311 37.7762C369.982 37.4644 371.307 37.5495 372.285 38.0316C373.269 38.5058 373.877 39.3689 374.111 40.6206ZM372.282 40.9617C372.121 40.0967 371.752 39.5212 371.177 39.2352C370.608 38.948 369.802 38.9017 368.76 39.0961L366.794 39.4629L367.733 44.4961L369.7 44.1292C370.669 43.9482 371.386 43.611 371.85 43.1175C372.313 42.6175 372.457 41.8989 372.282 40.9617ZM384.395 34.7751L384.65 36.1415L381.642 36.7027L383.658 47.5063L386.666 46.945L386.921 48.3115L379.175 49.7568L378.92 48.3904L381.928 47.8291L379.912 37.0256L376.904 37.5868L376.649 36.2204L384.395 34.7751ZM393.411 32.8691C394.296 32.7041 395.057 32.6773 395.695 32.7888C396.333 32.9004 396.961 33.1223 397.579 33.4546L396.833 34.7433C396.339 34.4623 395.84 34.2911 395.333 34.2297C394.832 34.1604 394.322 34.1741 393.805 34.2707C393.064 34.4089 392.412 34.7136 391.849 35.1849C391.285 35.6496 390.885 36.3244 390.65 37.2091C390.42 38.0861 390.434 39.2161 390.692 40.5989C390.943 41.9423 391.325 42.9868 391.837 43.7322C392.355 44.4763 392.959 44.9706 393.649 45.2148C394.339 45.4591 395.067 45.5097 395.834 45.3667C396.588 45.226 397.189 44.9952 397.638 44.6741C398.093 44.3518 398.47 44.0102 398.769 43.6492L399.863 44.6048C399.525 45.0816 399.052 45.5292 398.445 45.9476C397.837 46.3595 397.051 46.6553 396.088 46.8351C394.987 47.0405 393.944 46.9603 392.961 46.5945C391.976 46.2222 391.127 45.5634 390.415 44.6179C389.703 43.6725 389.205 42.4429 388.923 40.929C388.639 39.4086 388.663 38.0817 388.994 36.9484C389.331 35.8074 389.889 34.8928 390.669 34.2046C391.448 33.5099 392.362 33.0648 393.411 32.8691ZM404.673 34.0637C406.135 33.791 407.33 34.0732 408.259 34.9103C409.189 35.7474 409.806 36.9851 410.112 38.6235C410.309 39.6786 410.313 40.6443 410.123 41.5205C409.934 42.3968 409.552 43.1293 408.977 43.7181C408.401 44.3003 407.631 44.6813 406.667 44.8611C405.206 45.1338 404.007 44.8489 403.07 44.0065C402.133 43.1641 401.512 41.9302 401.209 40.3049C401.011 39.2433 401.007 38.2743 401.196 37.3981C401.384 36.5153 401.766 35.7861 402.344 35.2104C402.927 34.6269 403.703 34.2447 404.673 34.0637ZM404.924 35.4104C404.033 35.5767 403.42 36.0336 403.085 36.7812C402.756 37.5274 402.721 38.592 402.979 39.9748C403.234 41.3445 403.647 42.3187 404.216 42.8975C404.79 43.4685 405.523 43.6708 406.414 43.5045C407.306 43.3382 407.912 42.8825 408.234 42.1375C408.563 41.3912 408.599 40.3299 408.342 38.9537C408.086 37.5774 407.673 36.6032 407.105 36.031C406.536 35.4522 405.809 35.2454 404.924 35.4104ZM419.342 31.3267C419.67 31.2656 420.001 31.2784 420.336 31.3651C420.671 31.4518 420.975 31.6832 421.249 32.0594C421.523 32.4356 421.733 33.0202 421.881 33.8132L423.319 41.5202L421.786 41.8063L420.397 34.3647C420.276 33.7159 420.15 33.2547 420.017 32.981C419.885 32.7073 419.632 32.6053 419.258 32.675C418.95 32.7325 418.66 32.8883 418.389 33.1423C418.117 33.3899 417.88 33.7595 417.68 34.2511L419.181 42.2924L417.637 42.5803L416.249 35.1387C416.128 34.4899 416.001 34.0287 415.869 33.755C415.736 33.4813 415.483 33.3793 415.11 33.449C414.789 33.5089 414.496 33.6653 414.231 33.9182C413.965 34.1645 413.732 34.5335 413.532 35.0251L415.032 43.0664L413.509 43.3507L411.577 32.9993L412.875 32.7572L413.197 33.9382C413.404 33.4858 413.656 33.0929 413.954 32.7594C414.256 32.4181 414.666 32.1992 415.184 32.1026C415.577 32.0292 415.965 32.0551 416.348 32.1804C416.73 32.2991 417.052 32.6118 417.317 33.1187C417.523 32.6598 417.779 32.2728 418.087 31.9577C418.393 31.6361 418.811 31.4258 419.342 31.3267ZM428.939 29.5362C429.856 29.365 430.629 29.4514 431.256 29.7956C431.889 30.1385 432.403 30.6937 432.797 31.4611C433.19 32.2219 433.488 33.143 433.689 34.2244C433.884 35.2664 433.91 36.2245 433.768 37.0987C433.631 37.9652 433.311 38.6861 432.808 39.2614C432.305 39.8368 431.605 40.2082 430.707 40.3757C429.573 40.5873 428.588 40.3575 427.75 39.6863L428.671 44.6212L427.058 45.1357L424.349 30.6163L425.755 30.354L426.162 31.7734C426.443 31.1717 426.819 30.6777 427.289 30.2915C427.76 29.9053 428.31 29.6535 428.939 29.5362ZM428.793 30.9366C428.223 31.043 427.751 31.3108 427.377 31.7401C427.001 32.1628 426.715 32.6096 426.518 33.0803L427.475 38.2118C427.819 38.5614 428.215 38.8163 428.666 38.9764C429.121 39.1287 429.595 39.1591 430.086 39.0674C430.945 38.9072 431.529 38.459 431.84 37.723C432.15 36.9869 432.176 35.9275 431.918 34.5447C431.414 31.8446 430.373 30.6419 428.793 30.9366ZM440.039 27.465C441.501 27.1923 442.696 27.4745 443.626 28.3116C444.555 29.1487 445.172 30.3864 445.478 32.0248C445.675 33.0799 445.679 34.0456 445.49 34.9218C445.3 35.7981 444.918 36.5306 444.343 37.1194C443.767 37.7016 442.997 38.0826 442.034 38.2624C440.572 38.5351 439.373 38.2502 438.436 37.4078C437.499 36.5654 436.879 35.3315 436.575 33.7062C436.377 32.6445 436.373 31.6756 436.562 30.7994C436.75 29.9166 437.133 29.1873 437.71 28.6116C438.293 28.0282 439.069 27.6459 440.039 27.465ZM440.291 28.8117C439.399 28.978 438.786 29.4349 438.451 30.1824C438.122 30.9287 438.087 31.9933 438.345 33.3761C438.6 34.7458 439.013 35.72 439.582 36.2988C440.156 36.8697 440.889 37.0721 441.781 36.9058C442.672 36.7395 443.279 36.2838 443.601 35.5387C443.929 34.7925 443.965 33.7312 443.709 32.355C443.452 30.9787 443.039 30.0045 442.472 29.4323C441.902 28.8535 441.175 28.6467 440.291 28.8117ZM449.858 36.5685L447.927 26.2172L449.332 25.9549L449.728 27.3663C450.048 26.7572 450.497 26.253 451.073 25.8538C451.649 25.4481 452.238 25.189 452.841 25.0765C453.856 24.887 454.644 25.0181 455.203 25.4699C455.768 25.9205 456.141 26.6242 456.319 27.581L457.722 35.1012L456.071 35.4093L454.895 29.1081C454.763 28.4003 454.617 27.8375 454.458 27.4196C454.299 27.0018 454.072 26.7151 453.779 26.5596C453.492 26.4029 453.089 26.3729 452.572 26.4695C452.165 26.5453 451.798 26.7053 451.471 26.9495C451.15 27.1925 450.874 27.4746 450.642 27.7959C450.416 28.1094 450.236 28.4176 450.103 28.7205L451.509 36.2604L449.858 36.5685ZM462.088 29.5361C462.357 30.7268 462.835 31.543 463.521 31.9847C464.212 32.4186 464.958 32.561 465.757 32.4118C466.288 32.3127 466.752 32.1448 467.149 31.9081C467.545 31.6713 467.944 31.3561 468.346 30.9625L469.326 31.9088C468.918 32.3781 468.423 32.779 467.841 33.1115C467.259 33.4439 466.643 33.6706 465.995 33.7917C464.985 33.98 464.085 33.9141 463.292 33.594C462.507 33.2726 461.852 32.7437 461.328 32.0073C460.809 31.2632 460.451 30.357 460.251 29.2887C460.056 28.2402 460.065 27.2753 460.281 26.3942C460.503 25.5119 460.908 24.7751 461.496 24.1838C462.091 23.5913 462.847 23.2095 463.764 23.0383C465.069 22.795 466.179 23.0558 467.094 23.8208C468.017 24.5846 468.625 25.7529 468.918 27.3258C468.951 27.5027 468.976 27.671 468.992 27.8308C469.015 27.9893 469.033 28.1249 469.048 28.2375L462.088 29.5361ZM464.037 24.3912C463.27 24.5343 462.679 24.9261 462.263 25.5667C461.846 26.2072 461.712 27.1038 461.859 28.2563L467.256 27.2493C467.03 26.1455 466.632 25.3584 466.063 24.8882C465.492 24.4114 464.817 24.2457 464.037 24.3912ZM473.435 32.1694L471.504 21.818L472.91 21.5557L473.305 22.9671C473.626 22.358 474.074 21.8539 474.651 21.4547C475.226 21.049 475.815 20.7898 476.418 20.6773C477.434 20.4878 478.221 20.6189 478.78 21.0707C479.346 21.5213 479.718 22.225 479.897 23.1818L481.3 30.7021L479.648 31.0102L478.472 24.7089C478.34 24.0012 478.195 23.4383 478.035 23.0205C477.876 22.6026 477.65 22.3159 477.356 22.1605C477.069 22.0038 476.667 21.9737 476.149 22.0703C475.743 22.1461 475.376 22.3061 475.048 22.5503C474.728 22.7933 474.451 23.0754 474.22 23.3967C473.993 23.7102 473.813 24.0184 473.68 24.3214L475.087 31.8613L473.435 32.1694ZM493.345 27.9155C493.035 28.2174 492.64 28.481 492.16 28.7062C491.68 28.9315 491.197 29.0893 490.712 29.1798C489.598 29.3877 488.685 29.2562 487.974 28.7854C487.262 28.3147 486.82 27.6205 486.649 26.703L485.497 20.5296L483.118 20.9734L482.88 19.6955L485.259 19.2516L484.82 16.9022L486.435 16.3974L486.91 18.9435L490.489 18.2759L490.53 19.5905L487.149 20.2214L488.297 26.3752C488.405 26.9519 488.637 27.3629 488.995 27.6081C489.359 27.8521 489.895 27.9081 490.603 27.776C490.99 27.7039 491.338 27.5914 491.649 27.4385C491.959 27.2856 492.242 27.1108 492.497 26.914L493.345 27.9155Z" fill="black"/>
</svg>
