<svg width="981" height="344" fill="none" xmlns="http://www.w3.org/2000/svg"><path fill-rule="evenodd" clip-rule="evenodd" d="M76 201h39l24-142h-39L76 201zm47-160c12 0 23-9 24-20s-7-20-19-20-22 9-24 20c-1 11 8 20 19 20zM91 59H64l6-34H30l-5 34H6L1 89h19L8 163c-5 27 11 41 40 40 10 0 18-2 22-4l-1-29h-1l-9 1c-8 0-13-3-11-14l11-68h27l5-30zm124 31c-16 0-29 11-32 29l-14 82h-39l24-142h37l-4 25h2c9-16 26-27 47-27 29 0 46 21 40 54l-15 90h-39l14-83c2-18-5-28-21-28zm129 126c-5 11-12 20-20 26h388l30-183h39l-4 24h2c7-12 21-26 45-26 31 0 53 25 45 73s-37 73-70 73c-23 0-32-13-36-25h-1l-11 64h164l-43-43 25-25 83 83-1 2 1 1-83 83-25-25 41-41H2v-35h263l10-22c13 5 22 4 30-9l4-6-27-146h40l12 105h1l47-105h44l-82 157zM490 90c-16 0-29 11-32 29l-13 82h-40l32-189h38l-12 72h2c9-17 25-27 47-27 29 0 45 20 40 54l-15 90h-40l14-83c3-18-5-28-21-28zm158-31h-25l5-34h-39l-6 34h-19l-5 30h20l-13 74c-5 27 12 41 41 40 10 0 18-2 22-4l-1-29h-1l-9 1c-8 0-13-3-12-14l12-68h45l-12 74c-5 27 11 41 40 40 10 0 18-2 22-4l-1-29h-1l-9 1c-8 0-13-3-11-14l11-68h27l5-30h-27l6-34h-40l-5 34h-20zm121 71c4-25 18-41 37-41s27 17 23 41c-5 25-18 42-37 42s-27-17-23-42z" fill="url(#paint0_linear)"/><defs><linearGradient id="paint0_linear" x1="490.4" y1=".9" x2="490.4" y2="343.2" gradientUnits="userSpaceOnUse"><stop stop-color="#C75975"/><stop offset="1" stop-color="#9A84CD"/></linearGradient></defs></svg>