<svg width="981" height="344" viewBox="0 0 981 344" fill="none" xmlns="http://www.w3.org/2000/svg">
<path fill-rule="evenodd" clip-rule="evenodd" d="M76.0325 201H115.365L139.001 59.1818H99.6689L76.0325 201ZM123.305 40.7159C135.031 40.7159 145.557 31.6676 146.849 20.7727C148.05 9.7855 139.555 0.921875 127.829 0.921875C116.196 0.921875 105.578 9.7855 104.285 20.7727C102.9 31.6676 111.579 40.7159 123.305 40.7159ZM90.9474 59.1818H64.1719L69.804 25.2045H30.4716L24.8395 59.1818H5.54262L0.556824 88.7273H19.946L7.75853 162.591C2.77273 190.29 19.3921 204.047 48.2912 202.939C58.4475 202.662 65.9261 200.631 70.358 199.246L68.8807 169.977C68.6056 170.027 68.29 170.087 67.9405 170.154L67.928 170.156L67.9248 170.157L67.9206 170.158L67.9178 170.158C65.685 170.584 62.0914 171.27 58.9091 171.27C51.0611 171.27 45.983 168.315 47.8296 157.42L59.2784 88.7273H86.054L90.9474 59.1818ZM214.916 90.0199C198.943 90.0199 186.293 100.73 183.154 119.011L169.489 201H130.249L153.886 59.1818H191.279L187.217 84.2031H188.786C197.742 67.5838 214.823 57.3352 235.967 57.3352C265.42 57.3352 281.577 77.5554 276.038 110.702L260.896 201H221.563L235.505 117.719C238.367 100.361 230.796 90.0199 214.916 90.0199ZM344.427 216.327C338.971 226.816 332.217 235.581 323.703 242H711.998L742.468 59.1818H781.247L777.369 83.0028H779.031C786.048 71.4616 799.989 57.3352 823.718 57.3352C854.833 57.3352 876.992 81.5256 868.96 130.276C861.112 177.733 831.566 203.308 799.251 203.308C776.353 203.308 766.751 190.105 763.242 178.287H761.857L751.316 242H915.251L872 198.749L896.749 174L980.187 257.439L979.032 258.594L980.187 259.749L896.749 343.187L872 318.439L913.439 277H2V242H264.877L274.995 220.482C288.198 224.821 297.339 223.621 305.187 210.787L308.696 204.786L282.105 59.1818H321.991L333.994 163.514H335.471L382.467 59.1818H425.585L344.427 216.327ZM490.489 90.0199C474.423 90.0199 461.405 100.73 458.358 119.011L444.693 201H405.453L436.845 11.9091H474.977L463.159 84.2031H464.729C473.869 67.4915 490.027 57.3352 511.632 57.3352C541.085 57.3352 557.335 77.4631 551.796 110.702L536.654 201H497.413L511.263 117.719C514.125 100.268 506.369 90.0199 490.489 90.0199ZM648.342 59.1818H622.816L628.448 25.2045H589.116L583.484 59.1818H564.187L559.201 88.7273H578.591L566.403 162.591C561.417 190.29 578.037 204.047 606.936 202.939C617.092 202.662 624.571 200.631 629.003 199.246L627.525 169.977C627.377 170.004 627.216 170.034 627.045 170.067L626.77 170.119L626.562 170.158C624.329 170.584 620.736 171.27 617.554 171.27C609.706 171.27 604.627 168.315 606.474 157.42L617.923 88.7273H643.356H644.698H662.745L650.558 162.591C645.572 190.29 662.191 204.047 691.09 202.939C701.247 202.662 708.725 200.631 713.157 199.246L711.68 169.977L711.515 170.007C711.419 170.025 711.319 170.044 711.215 170.064L711.097 170.086L710.717 170.158C708.484 170.584 704.891 171.27 701.708 171.27C693.86 171.27 688.782 168.315 690.629 157.42L702.078 88.7273H728.853L733.747 59.1818H706.971L712.603 25.2045H673.271L667.639 59.1818H649.592H648.342ZM769.151 130.091C773.214 104.793 786.786 88.6349 805.806 88.6349C825.288 88.6349 832.674 105.531 828.796 130.091C824.457 154.835 811.438 172.009 792.049 172.009C773.122 172.009 765.089 155.389 769.151 130.091Z" fill="url(#paint0_linear)"/>
<defs>
<linearGradient id="paint0_linear" x1="490.372" y1="0.921875" x2="490.372" y2="343.187" gradientUnits="userSpaceOnUse">
<stop stop-color="#C75975"/>
<stop offset="1" stop-color="#9A84CD"/>
</linearGradient>
</defs>
</svg>
