<svg width="286" height="139" viewBox="0 0 286 139" fill="none" xmlns="http://www.w3.org/2000/svg">
<path d="M48.3409 52.0909H41.75L43.1364 43.7273H33.4545L32.0682 52.0909H27.3182L26.0909 59.3636H30.8636L27.8636 77.5455C26.6364 84.3636 30.7273 87.75 37.8409 87.4773C40.3409 87.4091 42.1818 86.9091 43.2727 86.5682L42.9091 79.3636C42.4091 79.4545 41.3636 79.6818 40.4545 79.6818C38.5227 79.6818 37.2727 78.9545 37.7273 76.2727L40.5455 59.3636H47.1364L48.3409 52.0909ZM44.6695 87H54.3514L60.1695 52.0909H50.4877L44.6695 87ZM56.3059 47.5455C59.1923 47.5455 61.7832 45.3182 62.1014 42.6364C62.3968 39.9318 60.3059 37.75 57.4195 37.75C54.5559 37.75 51.9423 39.9318 51.6241 42.6364C51.2832 45.3182 53.4195 47.5455 56.3059 47.5455ZM71.038 66.8182C71.8107 62.3182 74.9243 59.6818 78.8561 59.6818C82.7652 59.6818 84.6289 62.2273 83.9243 66.5L80.4925 87H90.1743L93.9016 64.7727C95.2652 56.6136 91.288 51.6364 84.038 51.6364C78.8334 51.6364 74.6289 54.1591 72.4243 58.25H72.038L73.038 52.0909H63.8334L58.0152 87H67.6743L71.038 66.8182ZM96.1905 100.023C103.35 100.023 107.804 96.4091 110.736 90.7727L130.713 52.0909H120.1L108.531 77.7727H108.168L105.213 52.0909H95.395L101.94 87.9318L101.077 89.4091C99.145 92.5682 96.895 92.8636 93.645 91.7955L90.2359 99.0455C91.5541 99.6136 93.7132 100.023 96.1905 100.023ZM138.78 66.8182C139.53 62.3182 142.735 59.6818 146.69 59.6818C150.599 59.6818 152.508 62.2045 151.803 66.5L148.394 87H158.053L161.78 64.7727C163.144 56.5909 159.144 51.6364 151.894 51.6364C146.576 51.6364 142.599 54.1364 140.349 58.25H139.962L142.871 40.4545H133.485L125.758 87H135.417L138.78 66.8182ZM185.853 52.0909H179.262L180.649 43.7273H170.967L169.581 52.0909H164.831L163.603 59.3636H168.376L165.376 77.5455C164.149 84.3636 168.24 87.75 175.353 87.4773C177.853 87.4091 179.694 86.9091 180.785 86.5682L180.422 79.3636C179.922 79.4545 178.876 79.6818 177.967 79.6818C176.035 79.6818 174.785 78.9545 175.24 76.2727L178.058 59.3636H184.649L185.853 52.0909ZM206.568 52.0909H199.978L201.364 43.7273H191.682L190.296 52.0909H185.546L184.318 59.3636H189.091L186.091 77.5455C184.864 84.3636 188.955 87.75 196.068 87.4773C198.568 87.4091 200.409 86.9091 201.5 86.5682L201.137 79.3636C200.637 79.4545 199.591 79.6818 198.682 79.6818C196.75 79.6818 195.5 78.9545 195.955 76.2727L198.773 59.3636H205.364L206.568 52.0909ZM200.715 100.091H210.397L213.488 81.4091H213.829C214.693 84.3182 217.056 87.5682 222.693 87.5682C230.647 87.5682 237.92 81.2727 239.852 69.5909C241.829 57.5909 236.374 51.6364 228.715 51.6364C222.874 51.6364 219.443 55.1136 217.715 57.9545H217.306L218.261 52.0909H208.715L200.715 100.091ZM215.283 69.5455C216.283 63.3182 219.624 59.3409 224.306 59.3409C229.102 59.3409 230.92 63.5 229.965 69.5455C228.897 75.6364 225.693 79.8636 220.92 79.8636C216.261 79.8636 214.283 75.7727 215.283 69.5455Z" fill="url(#paint0_linear)"/>
<path d="M28 102H262.5M262.5 102L248.485 87M262.5 102L248.485 117" stroke="url(#paint1_linear)" stroke-width="8"/>
<defs>
<linearGradient id="paint0_linear" x1="133" y1="25" x2="133" y2="102" gradientUnits="userSpaceOnUse">
<stop stop-color="#E33E3E"/>
<stop offset="1" stop-color="#9689D6"/>
</linearGradient>
<linearGradient id="paint1_linear" x1="152.5" y1="87" x2="152.5" y2="117" gradientUnits="userSpaceOnUse">
<stop stop-color="#B9697A"/>
<stop offset="1" stop-color="#9E7FBD"/>
</linearGradient>
</defs>
</svg>
