<svg width="209" height="257" viewBox="0 0 209 257" fill="none" xmlns="http://www.w3.org/2000/svg">
<path d="M151.944 175.587C152.921 176.563 154.503 176.563 155.48 175.587L171.39 159.677C172.366 158.7 172.366 157.118 171.39 156.141C170.413 155.165 168.83 155.165 167.854 156.141L153.712 170.283L139.57 156.141C138.594 155.165 137.011 155.165 136.034 156.141C135.058 157.118 135.058 158.7 136.034 159.677L151.944 175.587ZM151.212 82.9557L151.212 173.819L156.212 173.819L156.212 82.9557L151.212 82.9557Z" fill="#565656"/>
<path d="M50.2829 175.587C51.2592 176.563 52.8421 176.563 53.8184 175.587L69.7283 159.677C70.7046 158.7 70.7046 157.118 69.7283 156.141C68.752 155.165 67.1691 155.165 66.1928 156.141L52.0506 170.283L37.9085 156.141C36.9322 155.165 35.3493 155.165 34.373 156.141C33.3966 157.118 33.3966 158.7 34.373 159.677L50.2829 175.587ZM49.5506 82.9557L49.5506 173.819L54.5506 173.819L54.5506 82.9557L49.5506 82.9557Z" fill="#565656"/>
<path fill-rule="evenodd" clip-rule="evenodd" d="M140.699 188.684H175.671V199.256L208.203 199.256V257H0V199.256L34.9715 199.256V188.684H69.943V199.256H140.699V188.684Z" fill="#CD556B"/>
<path d="M28.8892 241.986C30.7727 241.986 33.1733 241.432 34.3182 240.952L33.8011 239.253C33.1364 239.474 30.9943 240.213 28.9631 240.213C22.6477 240.213 19.2869 236.668 19.2869 230.389C19.2869 224.222 22.7216 220.528 28.5199 220.528C34.392 220.528 37.1619 224.665 37.1619 228.801C37.1619 233.011 36.7188 234.895 34.8352 234.895C33.7273 234.895 33.1364 233.972 33.1364 232.938V224.591H31.179V225.625H31.0682C30.8097 224.812 29.3693 224.111 27.5227 224.295C24.7528 224.591 22.6477 226.881 22.6477 230.205C22.6477 233.713 24.3097 236.409 27.5227 236.52C29.6278 236.594 30.7358 235.56 31.179 234.489H31.2898C31.5114 236.077 33.5057 236.631 34.7983 236.631C38.7131 236.631 39.0824 232.42 39.0824 228.838C39.0824 223.778 35.5369 218.793 28.6307 218.793C21.5028 218.793 17.2557 223.114 17.2557 230.315C17.2557 237.776 21.3551 241.986 28.8892 241.986ZM27.8182 234.636C25.4176 234.636 24.5682 232.457 24.5682 230.094C24.5682 227.952 25.7869 226.105 27.892 226.105C30.108 226.105 31.2898 226.991 31.2898 230.094C31.2898 233.159 30.2926 234.636 27.8182 234.636ZM48.5115 222.818H45.4831V219.42H43.3042V222.818H41.1621V224.665H43.3042V233.528C43.3042 236.003 45.2985 237.185 47.1451 237.185C47.9576 237.185 48.4746 237.037 48.7701 236.926L48.3269 234.969C48.1422 235.006 47.8468 235.08 47.3667 235.08C46.4064 235.08 45.4831 234.784 45.4831 232.938V224.665H48.5115V222.818ZM51.7892 237H53.9682V222.818H51.7892V237ZM52.8972 220.455C53.7466 220.455 54.4483 219.79 54.4483 218.977C54.4483 218.165 53.7466 217.5 52.8972 217.5C52.0478 217.5 51.3461 218.165 51.3461 218.977C51.3461 219.79 52.0478 220.455 52.8972 220.455ZM60.1381 228.469C60.1381 225.994 61.6708 224.591 63.7575 224.591C65.7795 224.591 67.0075 225.911 67.0075 228.136V237H69.1864V227.989C69.1864 224.369 67.2567 222.634 64.3853 222.634C62.2433 222.634 60.9137 223.594 60.2489 225.034H60.0643V222.818H57.9592V237H60.1381V228.469ZM74.0637 242.281C76.0304 242.281 77.4245 241.238 78.237 239.068L84.2754 222.855L81.8933 222.818L77.9785 234.119H77.8308L73.916 222.818H71.5524L76.7967 237.074L76.3904 238.182C75.6149 240.305 74.6177 240.509 73.0297 240.102L72.4757 242.023C72.6973 242.134 73.3251 242.281 74.0637 242.281ZM89.3374 228.469C89.3374 225.994 90.9162 224.591 93.0675 224.591C95.1172 224.591 96.3544 225.884 96.3544 228.136V237H98.5334V227.989C98.5334 224.342 96.5945 222.634 93.6953 222.634C91.4609 222.634 90.1868 223.566 89.522 225.034H89.3374V218.091H87.1584V237H89.3374V228.469ZM108.687 222.818H105.659V219.42H103.48V222.818H101.338V224.665H103.48V233.528C103.48 236.003 105.474 237.185 107.321 237.185C108.133 237.185 108.65 237.037 108.946 236.926L108.503 234.969C108.318 235.006 108.023 235.08 107.542 235.08C106.582 235.08 105.659 234.784 105.659 232.938V224.665H108.687V222.818ZM118.133 222.818H115.104V219.42H112.925V222.818H110.783V224.665H112.925V233.528C112.925 236.003 114.92 237.185 116.766 237.185C117.579 237.185 118.096 237.037 118.391 236.926L117.948 234.969C117.763 235.006 117.468 235.08 116.988 235.08C116.028 235.08 115.104 234.784 115.104 232.938V224.665H118.133V222.818ZM121.41 242.318H123.589V234.821H123.774C124.254 235.597 125.177 237.295 127.91 237.295C131.456 237.295 133.93 234.452 133.93 229.946C133.93 225.477 131.456 222.634 127.873 222.634C125.104 222.634 124.254 224.332 123.774 225.071H123.515V222.818H121.41V242.318ZM123.552 229.909C123.552 226.733 124.956 224.591 127.615 224.591C130.385 224.591 131.751 226.918 131.751 229.909C131.751 232.938 130.348 235.338 127.615 235.338C124.993 235.338 123.552 233.122 123.552 229.909ZM143.939 217.205H141.944L135.851 239.844H137.845L143.939 217.205ZM150.695 237.332C153.169 237.332 154.462 236.003 154.905 235.08H155.016V237H157.195V227.656C157.195 223.151 153.76 222.634 151.951 222.634C149.809 222.634 147.371 223.372 146.263 225.957L148.331 226.696C148.811 225.662 149.947 224.554 152.025 224.554C154.028 224.554 155.016 225.616 155.016 227.435V227.509C155.016 228.561 153.945 228.469 151.36 228.801C148.728 229.143 145.857 229.724 145.857 232.974C145.857 235.744 147.999 237.332 150.695 237.332ZM151.027 235.375C149.292 235.375 148.036 234.599 148.036 233.085C148.036 231.423 149.55 230.906 151.249 230.685C152.172 230.574 154.647 230.315 155.016 229.872V231.866C155.016 233.639 153.613 235.375 151.027 235.375ZM161.172 242.318H163.351V234.821H163.536C164.016 235.597 164.939 237.295 167.672 237.295C171.218 237.295 173.692 234.452 173.692 229.946C173.692 225.477 171.218 222.634 167.635 222.634C164.865 222.634 164.016 224.332 163.536 225.071H163.277V222.818H161.172V242.318ZM163.314 229.909C163.314 226.733 164.718 224.591 167.377 224.591C170.146 224.591 171.513 226.918 171.513 229.909C171.513 232.938 170.11 235.338 167.377 235.338C164.754 235.338 163.314 233.122 163.314 229.909ZM177.016 242.318H179.195V234.821H179.379C179.86 235.597 180.783 237.295 183.516 237.295C187.061 237.295 189.536 234.452 189.536 229.946C189.536 225.477 187.061 222.634 183.479 222.634C180.709 222.634 179.86 224.332 179.379 225.071H179.121V222.818H177.016V242.318ZM179.158 229.909C179.158 226.733 180.561 224.591 183.22 224.591C185.99 224.591 187.357 226.918 187.357 229.909C187.357 232.938 185.953 235.338 183.22 235.338C180.598 235.338 179.158 233.122 179.158 229.909Z" fill="white"/>
<path fill-rule="evenodd" clip-rule="evenodd" d="M140.699 0H175.671V10.5728H208.203V68.3165H0V10.5728H34.9715V0H69.943V10.5728H140.699V0Z" fill="#A978B2"/>
<path d="M30.9148 47.8352C32.3636 47.8352 34.2102 47.4091 35.0909 47.0398L34.6932 45.733C34.1818 45.9034 32.5341 46.4716 30.9716 46.4716C26.1136 46.4716 23.5284 43.7443 23.5284 38.9148C23.5284 34.1705 26.1705 31.3295 30.6307 31.3295C35.1477 31.3295 37.2784 34.5114 37.2784 37.6932C37.2784 40.9318 36.9375 42.3807 35.4886 42.3807C34.6364 42.3807 34.1818 41.6705 34.1818 40.875V34.4545H32.6761V35.25H32.5909C32.392 34.625 31.2841 34.0852 29.8636 34.2273C27.733 34.4545 26.1136 36.2159 26.1136 38.7727C26.1136 41.4716 27.392 43.5455 29.8636 43.6307C31.483 43.6875 32.3352 42.892 32.6761 42.0682H32.7614C32.9318 43.2898 34.4659 43.7159 35.4602 43.7159C38.4716 43.7159 38.7557 40.4773 38.7557 37.7216C38.7557 33.8295 36.0284 29.9943 30.7159 29.9943C25.233 29.9943 21.9659 33.3182 21.9659 38.858C21.9659 44.5966 25.1193 47.8352 30.9148 47.8352ZM30.0909 42.1818C28.2443 42.1818 27.5909 40.5057 27.5909 38.6875C27.5909 37.0398 28.5284 35.6193 30.1477 35.6193C31.8523 35.6193 32.7614 36.3011 32.7614 38.6875C32.7614 41.0455 31.9943 42.1818 30.0909 42.1818ZM46.0089 33.0909H43.6793V30.4773H42.0032V33.0909H40.3555V34.5114H42.0032V41.3295C42.0032 43.233 43.5373 44.142 44.9577 44.142C45.5827 44.142 45.9805 44.0284 46.2077 43.9432L45.8668 42.4375C45.7248 42.4659 45.4975 42.5227 45.1282 42.5227C44.3896 42.5227 43.6793 42.2955 43.6793 40.875V34.5114H46.0089V33.0909ZM48.5302 44H50.2063V33.0909H48.5302V44ZM49.3825 31.2727C50.0359 31.2727 50.5756 30.7614 50.5756 30.1364C50.5756 29.5114 50.0359 29 49.3825 29C48.729 29 48.1893 29.5114 48.1893 30.1364C48.1893 30.7614 48.729 31.2727 49.3825 31.2727ZM54.9524 37.4375C54.9524 35.5341 56.1314 34.4545 57.7365 34.4545C59.2919 34.4545 60.2365 35.4702 60.2365 37.1818V44H61.9126V37.0682C61.9126 34.2841 60.4283 32.9489 58.2195 32.9489C56.5717 32.9489 55.549 33.6875 55.0376 34.7955H54.8956V33.0909H53.2763V44H54.9524V37.4375ZM65.6644 48.0625C67.1772 48.0625 68.2496 47.2599 68.8746 45.5909L73.5195 33.1193L71.6871 33.0909L68.6758 41.7841H68.5621L65.5508 33.0909H63.7326L67.7667 44.0568L67.4542 44.9091C66.8576 46.5426 66.0906 46.6989 64.869 46.3864L64.4428 47.8636C64.6133 47.9489 65.0962 48.0625 65.6644 48.0625ZM77.4134 37.4375C77.4134 35.5341 78.6278 34.4545 80.2827 34.4545C81.8594 34.4545 82.8111 35.4489 82.8111 37.1818V44H84.4872V37.0682C84.4872 34.2628 82.9957 32.9489 80.7656 32.9489C79.0469 32.9489 78.0668 33.6662 77.5554 34.7955H77.4134V29.4545H75.7372V44H77.4134V37.4375ZM92.2979 33.0909H89.9684V30.4773H88.2923V33.0909H86.6445V34.5114H88.2923V41.3295C88.2923 43.233 89.8263 44.142 91.2468 44.142C91.8718 44.142 92.2695 44.0284 92.4968 43.9432L92.1559 42.4375C92.0138 42.4659 91.7866 42.5227 91.4173 42.5227C90.6786 42.5227 89.9684 42.2955 89.9684 40.875V34.5114H92.2979V33.0909ZM99.5636 33.0909H97.234V30.4773H95.5579V33.0909H93.9102V34.5114H95.5579V41.3295C95.5579 43.233 97.092 44.142 98.5124 44.142C99.1374 44.142 99.5352 44.0284 99.7624 43.9432L99.4215 42.4375C99.2795 42.4659 99.0522 42.5227 98.6829 42.5227C97.9442 42.5227 97.234 42.2955 97.234 40.875V34.5114H99.5636V33.0909ZM102.085 48.0909H103.761V42.3239H103.903C104.272 42.9205 104.983 44.2273 107.085 44.2273C109.812 44.2273 111.716 42.0398 111.716 38.5739C111.716 35.1364 109.812 32.9489 107.056 32.9489C104.926 32.9489 104.272 34.2557 103.903 34.8239H103.704V33.0909H102.085V48.0909ZM103.733 38.5455C103.733 36.1023 104.812 34.4545 106.858 34.4545C108.988 34.4545 110.039 36.2443 110.039 38.5455C110.039 40.875 108.96 42.7216 106.858 42.7216C104.841 42.7216 103.733 41.017 103.733 38.5455ZM119.414 28.7727H117.88L113.193 46.1875H114.727L119.414 28.7727ZM125.833 44.2273C128.248 44.2273 129.839 42.75 130.123 40.8182H128.447C128.134 42.0114 127.14 42.7216 125.833 42.7216C123.844 42.7216 122.566 41.0739 122.566 38.5455C122.566 36.0739 123.873 34.4545 125.833 34.4545C127.31 34.4545 128.191 35.3636 128.447 36.358H130.123C129.839 34.3125 128.106 32.9489 125.805 32.9489C122.85 32.9489 120.89 35.2784 120.89 38.6023C120.89 41.8693 122.765 44.2273 125.833 44.2273ZM137.005 44.2273C139.96 44.2273 141.948 41.983 141.948 38.6023C141.948 35.1932 139.96 32.9489 137.005 32.9489C134.05 32.9489 132.062 35.1932 132.062 38.6023C132.062 41.983 134.05 44.2273 137.005 44.2273ZM137.005 42.7216C134.761 42.7216 133.738 40.7898 133.738 38.6023C133.738 36.4148 134.761 34.4545 137.005 34.4545C139.249 34.4545 140.272 36.4148 140.272 38.6023C140.272 40.7898 139.249 42.7216 137.005 42.7216ZM148.939 44.2273C151.893 44.2273 153.882 41.983 153.882 38.6023C153.882 35.1932 151.893 32.9489 148.939 32.9489C145.984 32.9489 143.995 35.1932 143.995 38.6023C143.995 41.983 145.984 44.2273 148.939 44.2273ZM148.939 42.7216C146.694 42.7216 145.672 40.7898 145.672 38.6023C145.672 36.4148 146.694 34.4545 148.939 34.4545C151.183 34.4545 152.206 36.4148 152.206 38.6023C152.206 40.7898 151.183 42.7216 148.939 42.7216ZM156.44 44H158.116V39.9162L159.288 38.8295L163.372 44H165.503L160.553 37.75L165.162 33.0909H163.088L158.315 37.9489H158.116V29.4545H156.44V44ZM167.319 44H168.995V33.0909H167.319V44ZM168.172 31.2727C168.825 31.2727 169.365 30.7614 169.365 30.1364C169.365 29.5114 168.825 29 168.172 29C167.518 29 166.978 29.5114 166.978 30.1364C166.978 30.7614 167.518 31.2727 168.172 31.2727ZM176.639 44.2273C178.855 44.2273 180.474 43.1193 180.986 41.4716L179.366 41.017C178.94 42.1534 177.953 42.7216 176.639 42.7216C174.672 42.7216 173.315 41.4503 173.237 39.1136H181.156V38.4034C181.156 34.3409 178.741 32.9489 176.469 32.9489C173.514 32.9489 171.554 35.2784 171.554 38.6307C171.554 41.983 173.486 44.2273 176.639 44.2273ZM173.237 37.6648C173.351 35.9673 174.551 34.4545 176.469 34.4545C178.287 34.4545 179.452 35.8182 179.452 37.6648H173.237Z" fill="white"/>
</svg>
